<svg width="43" height="25" viewBox="0 0 43 25" fill="none" xmlns="http://www.w3.org/2000/svg">
<g clip-path="url(#clip0_829_356)">
<path fill-rule="evenodd" clip-rule="evenodd" d="M0 37V12.7061H2.09379V12.2938H2.28708V11.7307H2.44829V11.5421H3.57572V11.7307H3.73655V12.106H3.89775V12.7061H7.82798V12.106H8.15027V12.4814H8.31122V12.7061H10.2446V12.4814H10.4374V12.106H10.7596V12.7061H20.3599V10.6036H20.8431V12.7061H25.9015V12.2938H26.2238V12.4814H26.7387V12.7061H29.993V12.2938H30.1542V11.9182H30.3154V11.5419H31.4426V11.7306H31.6038V12.1059H31.765V12.4812H31.9259V12.7059H36.0172V11.918H36.3395V12.2936H36.5004V12.7059H39.9153V4.89635H36.6614V5.45956H36.3395V5.08423H36.1783V4.89635H32.9249V5.45956H32.6026V5.08423H32.4417V4.89635H26.7389V5.08423H26.2241V5.27212H25.9018V4.89649H22.8087V5.08438H22.3256V4.89649H10.084V5.08438H9.92279V5.45971H9.76158V6.02277H9.60075V6.43624H9.43891V6.81156H9.11688V6.43624H8.95567V5.83533H8.79446V5.45971H8.63351V5.08438H8.47243V4.89649H5.05779V5.64744H4.70303V5.27212H4.5422V4.89649H1.44959V5.08438H1.28839V5.64744H1.12718V6.02277H0.966353V6.43624H0.805273V6.9993H0.644065V7.37462H0.483113V7.75025H0.322033V8.31331H0V-12H41.8799V14.7721H38.7874V14.9597H38.1431V14.7721H34.0517V14.9597H33.5686V14.7721H27.8669V14.9597H27.2219V14.7721H22.4863V14.9597H22.0032V14.7721H16.4623V14.9597H16.3014V15.1475H16.1402V15.3353H15.979V15.5229H15.8182V15.7107H15.3024V15.5229H15.1414V15.3353H14.9803V14.9598H14.8191V14.7722H8.4723V22.5816H14.6582V22.394H14.8191V22.2062H14.9803V21.9806H15.1414V21.793H15.3024V21.4174H15.8182V21.6053H15.979V21.9806H16.1402V22.2062H16.3014V22.394H16.4623V22.5816H20.36V20.667H22.0032V20.4791H22.3253V22.5816H25.4175V20.4791H25.9015V22.5816H36.3393V22.394H36.8224V22.2062H37.1444V22.5815H41.2357V22.3939H41.8801V37H0ZM19.1907 18.6127H21.5617V18.4249H21.7229V17.0132H21.5617V16.8254H19.1907V18.6127ZM19.3516 8.54958H21.8838V8.17425H22.045V7.3255H21.8838V6.95018H19.3516V8.54958ZM9.64176 21.3685V15.9469H14.1331V16.3603H14.294V16.5482H14.4552V16.7358H14.6164V16.9237H14.7772V17.1114H14.9384V17.299H15.0996V17.4869H15.2605V17.6748H16.0212V17.4869H16.1822V17.299H16.3431V17.1114H16.5043V16.736H16.6655V16.5484H16.8264V16.3605H16.9875V16.1719H17.1487V15.947H21.4781V16.1719H21.9614V16.3605H22.1226V16.5484H22.2838V16.736H22.4448V17.1114H22.606V18.3278H22.4448V18.703H22.2838V18.9287H22.1226V19.1161H21.8006V19.3042H20.9627V19.4919H19.1912V21.3688H17.1489V21.1812H16.9876V20.9934H16.8266V20.8055H16.6656V20.4302H16.5044V20.2424H16.3432V20.0548H16.1824V19.8669H16.0213V19.6791H15.0998V19.8669H14.9386V20.0548H14.7773V20.2424H14.6165V20.6179H14.4553V20.8055H14.2941V20.9934H14.1333V21.1812H13.9721V21.3688L9.64176 21.3685ZM23.4944 21.3685V15.9469H26.8577V16.1717H27.341V16.3603H27.5019V16.5482H27.6637V16.7358H27.825V17.1113H27.9858V17.5767H27.825V17.952H27.6637V18.3276H27.5019V19.4015H27.6637V19.5891H27.825V21.3685H27.1026V20.0547H26.9414V19.4915H26.7488V19.3037H24.4095V21.3684L23.4944 21.3685ZM28.875 21.3685V15.9469H32.5603V16.8257H29.79V18.2376H32.3994V18.9286H29.79V20.5278H32.5603V21.3685H28.875ZM33.6106 21.3685V20.5278H36.0589V20.3399H36.3812V19.3039H36.22V19.1158H34.738V18.9284H34.0937V18.7027H33.9325V18.5148H33.7715V18.3273H33.6103V18.1395H33.4491V16.9233H33.6103V16.7354H33.7715V16.36H34.0936V16.1714H34.4155V15.9466H37.1021V16.8254H34.4928V17.0132H34.3318V18.0495H34.6863V18.2373H36.4581V18.4249H36.7801V18.6127H36.9412V18.8006H37.1021V18.9882H37.2958V20.43H37.1021V20.6179H36.9412V20.8055H36.7801V20.9934H36.6189V21.1812H35.9748V21.3688L33.6106 21.3685ZM38.185 21.3685V20.5278H40.7944V20.3399H40.9556V19.1158H39.3126V18.9284H38.8293V18.7027H38.5072V18.5148H38.3462V18.3273H38.185V17.9517H38.0238V17.111H38.185V16.7355H38.3462V16.5479H38.5072V16.36H38.6683V16.1714H38.9903V15.9466H41.6769V16.8254H39.0676V17.0132H38.9066V18.0495H39.2287V18.2373H41.0329V18.4249H41.516V18.6127H41.6769V18.9881H41.8382V19.589H42V19.8668H41.8382V20.4299H41.6769V20.8052H41.355V20.9931H41.1937V21.181H40.5495V21.3685H38.185ZM17.5477 20.7152H18.2756V16.638H17.5477V16.8256H17.3865V17.0133H17.2255V17.2012H17.0644V17.3888H16.9032V17.5767H16.7423V17.7646H16.5811V18.1399H16.4199V19.1761H16.5811V19.4017H16.7423V19.777H16.9032V19.9649H17.0644V20.1525H17.2255V20.3402H17.3865V20.5281H17.5477V20.7152ZM10.3955 20.5278H13.7338V20.3399H13.8948V20.1522H14.056V19.9646H14.2172V19.7767H14.378V19.5888H14.5391V19.1758H14.7003V18.9879H14.8613V18.1395H14.7003V17.9516H14.5391V17.764H14.378V17.5761H14.2172V17.3882H14.056V17.2006H13.8948V17.0127H13.7338V16.825H10.3955V18.2368H13.005V18.9278H10.3955V20.5278ZM24.4095 18.425H26.749V18.2374H26.9415V17.0133H26.749V16.8256H24.4095V18.425ZM0.364053 11.494V11.2156H0.525261V10.84H0.686086V10.4646H0.847294V9.90143H1.00837V9.48811H1.16933V8.9249H1.33053V8.54958H1.49161V8.17425H1.65257V7.61119H1.81377V7.23557H1.97485V6.86024H2.13581V6.25933H2.29701V6.07145H3.69504V6.25933H3.85624V6.67236H4.01745V7.04798H4.1784V7.61104H4.33948V7.98637H4.50069V8.36169H4.66164V8.92476H4.85519V9.30038H5.0164V9.6757H5.17748V10.2766H5.33831V10.6522H6.06654V6.07115H7.62577V6.25904H7.7866V6.67206H7.9478V7.04768H8.10901V7.42301H8.26984V7.79833H8.43104V8.17396H8.59225V8.73702H8.75308V9.11234H8.91428V9.48767H9.80411V8.92446H9.96532V8.54913H10.1265V8.17381H10.2873V7.61074H10.4486V7.23512H10.6413V6.67206H10.8022V6.25904H10.9634V6.07115H12.4909V11.4937H11.7693V7.70127H11.0405V8.0766H10.8793V8.45192H10.7185V8.82755H10.5573V9.42846H10.3961V9.80378H10.2353V10.1791H10.0425V10.5547H9.88127V11.1178H9.71994V11.494H8.99807V11.3055H8.83699V10.9301H8.67617V10.5547H8.51496V10.1791H8.35375V9.61604H8.1928V9.20287H8.03159V8.82755H7.83804V8.45192H7.67683V7.88886H6.94885V11.4942H4.74543V10.9302H4.58448V10.5549H4.4234V10.1793H1.56878V10.5549H1.40757V10.9302H1.24636V11.4942L0.364053 11.494ZM13.7338 11.494V6.07145H17.3866V6.95018H14.6164V8.36184H17.2258V9.20273H14.6164V10.6525H17.3866V11.494H13.7338ZM18.4369 11.494V6.07145H21.8002V6.25933H22.2834V6.44707H22.4444V6.67236H22.6056V6.86024H22.7667V7.23557H22.9276V7.70127H22.7667V8.26434H22.6056V8.45178H22.4444V9.48811H22.6056V9.67585H22.7667V11.4939H22.0452V9.99137H21.884V9.61575H21.723V9.4283H19.3518V11.4939L18.4369 11.494ZM23.9776 11.494V6.07145H24.7316V11.494H23.9776ZM27.4247 11.494V11.3055H26.749V11.1178H26.4267V10.9301H26.2659V10.7422H26.1046V10.3668H25.9428V9.99152H25.7819V9.01484H25.6206V8.54958H25.7819V7.61119H25.9428V7.23557H26.1046V7.04813H26.2659V6.6725H26.5878V6.44722H26.9414V6.25948H27.4246V6.0716H28.952V6.95032H27.341V7.13821H27.0187V7.32565H26.8577V7.51354H26.6966V8.0766H26.5354V9.676H26.6966V10.0895H26.8577V10.4648H27.1797V10.6527H28.5528V10.4648H28.714V9.90158H28.875V9.48826H29.0361V9.11294H29.1973V8.54988H29.3582V8.17455H29.551V7.79893H29.7122V7.23586H29.874V6.86054H30.035V6.44737H30.1962V6.07174H31.7228V6.67265H31.9165V7.04828H32.0775V7.4236H32.2387V7.98666H32.3998V8.36199H32.5607V8.73761H32.7219V9.30067H32.8831V9.676H33.0441V10.0895H33.2053V10.6527H33.9333V6.0716H35.4926V6.44722H35.6536V6.6725H35.8148V7.04813H35.976V7.42345H36.1368V7.61134H36.298V7.98666H36.4592V8.36199H36.6202V8.54973H36.7814V8.92505H36.9425V9.30067H37.1034V9.48826H37.8641V6.0716H38.7467V11.4942H37.3487V11.3057H37.1875V10.9302H37.0263V10.7423H36.8653V10.367H36.7042V9.99167H36.543V9.80378H36.3821V9.42846H36.2209V9.01499H36.0596V8.82755H35.8988V8.45192H35.7375V8.26448H35.5764V7.88886H34.8484V11.4942H32.8061V11.3057H32.6449V10.9302H32.4837V10.5549H32.3228V10.1793H29.4684V10.5549H29.3066V11.1179H29.1454V11.4942L27.4247 11.494ZM29.6729 9.43795H32.21L30.9606 6.69165L29.6729 9.43795ZM1.72553 9.34564H4.26181L3.01277 6.59934L1.72553 9.34564Z" fill="black"/>
<path d="M6.86084 21.8287C6.86084 21.3363 7.05205 20.9158 7.43454 20.5673C7.81703 20.2187 8.2777 20.0444 8.81662 20.0444C9.35554 20.0444 9.81576 20.2187 10.1973 20.5673C10.5787 20.9158 10.7696 21.3362 10.7696 21.8287C10.7696 22.3211 10.5788 22.742 10.1973 23.0914C9.81576 23.4409 9.35562 23.6155 8.81662 23.6155C8.2777 23.6155 7.81703 23.4408 7.43454 23.0914C7.05205 22.742 6.86084 22.321 6.86084 21.8287V21.8287ZM10.4508 21.8287C10.4508 21.4157 10.2914 21.0636 9.97272 20.7724C9.65401 20.4812 9.26867 20.3356 8.81662 20.3356C8.36465 20.3356 7.97878 20.4812 7.6591 20.7724C7.33935 21.0636 7.17955 21.4157 7.17955 21.8287C7.17955 22.2416 7.33935 22.5942 7.6591 22.8862C7.97878 23.1783 8.36465 23.3243 8.81662 23.3243C9.26867 23.3243 9.65401 23.1783 9.97272 22.8862C10.2914 22.5941 10.4508 22.2416 10.4508 21.8287ZM9.4251 22.9061L8.8137 21.961H8.46599V22.9061H8.1212V20.7062H8.73837C9.31784 20.7062 9.60761 20.9092 9.60761 21.3151C9.60761 21.5975 9.45208 21.7969 9.1411 21.9134L9.79882 22.9061H9.4251V22.9061ZM8.46606 20.9762V21.7068C8.49507 21.7104 8.5704 21.7121 8.69205 21.7121C8.91609 21.7121 9.06682 21.6861 9.14402 21.6341C9.22123 21.582 9.2599 21.4827 9.2599 21.3362C9.2599 21.0944 9.08608 20.9735 8.73837 20.9735H8.60218L8.46606 20.9762V20.9762Z" fill="black"/>
</g>
<defs>
<clipPath id="clip0_829_356">
<rect width="43" height="25" fill="white"/>
</clipPath>
</defs>
</svg>
