<svg width="43" height="24" viewBox="0 0 43 24" fill="none" xmlns="http://www.w3.org/2000/svg">
<g clip-path="url(#clip0_829_380)">
<path d="M0 5H1.92945C4.09116 5 6 6.03152 6 9.99905C6 13.9685 4.09116 15 1.92945 15H0V5Z" fill="black"/>
<path d="M1 13H1.75961C2.89969 13 4 11.9071 4 9.99916C4 8.09121 2.89969 7 1.75961 7H1V13Z" fill="white"/>
<path d="M6 5.16572H7.3942V14.8049H6V5.16572ZM11.8884 7.7104C11.4088 7.30347 10.8926 6.8726 10.3465 6.7787C9.84659 6.69216 9.31411 6.89654 9.31411 7.85954C9.31411 9.53145 12.3613 8.82623 12.3613 12.0577C12.3613 14.1697 11.1473 15.1842 9.75174 14.9725C8.9957 14.8565 8.55807 14.5453 7.95513 13.9929V12.0375C8.43342 12.3965 9.1339 13.0612 9.67316 13.1938C10.2653 13.3374 10.9075 13.0796 10.9075 12.2087C10.9075 10.3711 7.86029 11.1315 7.86029 7.9424C7.86029 5.78808 9.06616 5 10.2896 5C10.8872 5 11.4223 5.31118 11.8884 5.86357V7.7104ZM21.8849 5C24.0664 5 25.4809 7.04385 25.4809 9.95863C25.4809 12.8716 24.0853 14.9725 21.8849 14.9725C19.6548 14.9725 18.2253 12.9139 18.2253 9.95863C18.2253 7.0015 19.6751 5 21.8849 5ZM25.0107 5.16572H26.5038L28.0525 10.2588L29.4982 5.16572H30.9452L28.2232 14.8049H27.7178L25.0107 5.16572ZM31.3083 5.16572H35.411V6.68479H32.7025V9.06007H35.182V10.5791H32.7025V13.2859H35.4313V14.8049H31.3083V5.16572ZM35.8026 5.16572H37.3065C38.801 5.16572 40.5827 5.09575 40.5827 7.77484C40.5827 8.90724 40.0353 9.84631 39.1478 10.012V10.0396C39.5259 10.0802 39.7454 10.6068 39.8849 11.0339L41 14.8031H39.4473L38.6113 11.7944C38.4121 11.0763 38.2333 10.8001 37.6452 10.8001H37.1968V14.8049H35.8026V5.16572Z" fill="black"/>
<path d="M37 9H37.4741C38.1851 9 39 8.89369 39 7.96811C39 7.07512 38.1964 7 37.4741 7H37V9Z" fill="white"/>
<path d="M18 13.9423C17.6845 14.5517 16.897 14.926 16.3657 14.9824C14.3529 15.193 13 13.5097 13 10.1806C13 6.81014 14.1787 4.85595 16.3746 5.0083C16.8011 5.03839 17.499 5.25281 17.971 5.82834V7.72799C17.4207 7.2164 16.8503 6.8534 16.367 6.82331C15.0318 6.74243 14.3541 8.02328 14.3541 10.0395C14.3541 12.0426 14.9864 13.1693 16.3682 13.0921C16.8983 13.062 17.7123 12.4132 17.9987 12.0558V13.9423H18Z" fill="black"/>
<path d="M42.3989 9.7374C42.7308 9.7374 42.9999 9.51122 42.9999 9.23222C42.9999 8.95322 42.7308 8.72705 42.3989 8.72705C42.0669 8.72705 41.7979 8.95322 41.7979 9.23222C41.7979 9.51122 42.0669 9.7374 42.3989 9.7374Z" fill="black"/>
<path d="M42.8534 9.23219C42.8534 8.99584 42.6509 8.82446 42.399 8.82446C42.1471 8.82446 41.9446 8.99472 41.9446 9.23219C41.9446 9.46853 42.1471 9.63879 42.399 9.63879C42.6495 9.63879 42.8534 9.46741 42.8534 9.23219Z" fill="white"/>
<path d="M42.1671 8.94324H42.4203C42.5842 8.94324 42.6708 8.99028 42.6708 9.11126C42.6708 9.20871 42.6042 9.25687 42.4936 9.26471L42.6762 9.51562H42.5469L42.3697 9.26919H42.2924V9.51562H42.1658V8.94324H42.1671Z" fill="black"/>
<path d="M42.2937 9.18856H42.4056C42.4803 9.18856 42.5456 9.1796 42.5456 9.10343C42.5456 9.03511 42.4723 9.02502 42.407 9.02502H42.2937V9.18856Z" fill="white"/>
</g>
<defs>
<clipPath id="clip0_829_380">
<rect width="43" height="23" fill="white" transform="translate(0 0.191406)"/>
</clipPath>
</defs>
</svg>
