<svg width="44" height="23" viewBox="0 0 44 23" fill="none" xmlns="http://www.w3.org/2000/svg">
<g clip-path="url(#clip0_829_359)">
<path d="M21.3348 6.487C21.3514 6.41045 21.3681 6.32836 21.6053 6.32836C22.3415 6.32836 22.4827 7.0012 22.4827 7.55392C22.4827 7.88757 22.3455 9.57268 21.0354 9.57268C20.84 9.57268 20.74 9.53994 20.74 9.3594C20.74 9.27177 20.7942 9.03104 20.8315 8.85049L21.3348 6.487ZM20.5739 6.25156C20.786 6.27347 20.8941 6.30091 20.8941 6.487C20.8941 6.59654 20.8608 6.76601 20.8484 6.82619L20.3369 9.24457C20.2663 9.58376 20.2039 9.60013 20 9.64923V9.73686H21.0522C22.2751 9.73686 22.9446 8.72458 22.9446 7.61964C22.9446 7.04526 22.6868 6.16418 21.7303 6.16418H20.5741L20.5739 6.25156ZM23.8053 9.17331C23.6431 9.49613 23.4601 9.79704 23.2272 9.79704C23.0317 9.79704 23.0317 9.55631 23.0317 9.45785C23.0317 9.20076 23.3602 7.84375 23.3602 7.69065C23.3602 7.57583 23.3269 7.54838 23.0982 7.54838V7.46075C23.2563 7.44992 23.6014 7.36229 23.7636 7.32402L23.776 7.33484L23.41 9.09651C23.3933 9.17306 23.3434 9.39188 23.3434 9.4576C23.3434 9.49588 23.3725 9.53969 23.41 9.53969C23.46 9.53969 23.5806 9.43015 23.7511 9.11287L23.8053 9.17331ZM23.7222 6.73856C23.6183 6.73856 23.5226 6.64539 23.5226 6.45401C23.5226 6.26264 23.6183 6.15864 23.718 6.15864C23.8552 6.15864 23.9259 6.33919 23.9259 6.45955C23.9259 6.56884 23.8593 6.73856 23.7222 6.73856ZM25.7476 9.16777C25.5398 9.5344 25.3941 9.78596 25.1695 9.78596C24.9781 9.78596 24.9699 9.62178 24.9699 9.46314C24.9699 9.33195 25.2777 7.99685 25.2777 7.77803C25.2777 7.67957 25.2528 7.60302 25.1738 7.60302C24.9741 7.60302 24.712 8.07366 24.5624 8.37986C24.3711 8.75732 24.317 8.99276 24.1466 9.73661H23.8348C23.9636 9.11841 24.2423 7.83821 24.2423 7.72314C24.2423 7.64105 24.2008 7.58086 23.9762 7.58086V7.49323C24.2008 7.43859 24.4253 7.38395 24.65 7.32377L24.6625 7.33459L24.3962 8.47806L24.4044 8.48889C24.5999 8.08398 24.9825 7.32351 25.3277 7.32351C25.5191 7.32351 25.6146 7.45471 25.6146 7.68461C25.6146 7.9198 25.2819 9.27126 25.2819 9.43544C25.2819 9.51753 25.3401 9.52861 25.3485 9.52861C25.4318 9.52861 25.5357 9.3536 25.6896 9.09625L25.7476 9.16777ZM26.28 8.35795C26.4339 7.87095 26.7166 7.44992 26.9413 7.44992C27.0453 7.44992 27.0868 7.55392 27.0868 7.66874C27.0868 7.71256 27.0662 8.36903 26.2094 8.59893L26.28 8.35795ZM27.1366 9.14032C26.9287 9.36468 26.7539 9.55077 26.5294 9.55077C26.3546 9.55077 26.1385 9.42487 26.1385 9.05269C26.1385 8.94315 26.1594 8.83387 26.1801 8.71904L26.2964 8.69714C26.9703 8.57123 27.3611 8.12805 27.3611 7.69594C27.3611 7.45521 27.2321 7.32377 27.02 7.32377C26.4337 7.32377 25.7765 8.24287 25.7765 9.02524C25.7765 9.36997 25.9096 9.79654 26.3464 9.79654C26.7624 9.79654 27.1408 9.29317 27.1866 9.20554L27.1366 9.14032ZM27.3904 9.73661L27.7273 8.13913C27.7689 7.93667 27.7938 7.75083 27.7938 7.70148C27.7938 7.62493 27.7731 7.53755 27.6441 7.53755C27.5983 7.53755 27.5526 7.55392 27.5068 7.56475V7.47183C27.7189 7.43355 27.9643 7.36229 28.1515 7.32402L28.164 7.33484L27.9603 8.42367L27.9685 8.4345L28.0018 8.32496C28.1391 7.96387 28.4553 7.32377 28.7172 7.32377C28.8129 7.32377 28.9168 7.40585 28.9168 7.59169C28.9168 7.87624 28.7671 7.87624 28.7214 7.87624C28.5426 7.87624 28.605 7.67932 28.5051 7.67932C28.3763 7.67932 28.1266 8.28668 28.0933 8.36877C27.9352 8.76261 27.877 9.00888 27.7065 9.73661H27.3904ZM28.7045 8.93787C28.7336 9.1786 28.8003 9.68196 29.1372 9.68196C29.3699 9.68196 29.4365 9.41933 29.4365 9.23878C29.4365 8.87768 28.9417 8.35241 28.9417 7.93113C28.9417 7.76166 28.9999 7.32377 29.4407 7.32377C29.628 7.32377 29.711 7.41693 29.8358 7.41693C29.9067 7.41693 29.9316 7.36229 29.9522 7.31822H30.0104L29.9272 8.07894H29.8605C29.8399 7.76695 29.7399 7.44967 29.4697 7.44967C29.3782 7.44967 29.2451 7.49877 29.2451 7.76695C29.2451 8.11168 29.7524 8.59868 29.7524 9.06352C29.7524 9.6598 29.3655 9.79679 29.1328 9.79679C29.0079 9.79679 28.8416 9.69279 28.721 9.69279C28.6628 9.69279 28.6462 9.74743 28.6213 9.80787H28.5547L28.6379 8.93787H28.7045ZM33.4501 7.1762C33.4419 7.0231 33.4043 6.28983 32.8096 6.28983C31.9779 6.28983 31.5535 7.61385 31.5535 8.41813C31.5535 9.13503 31.7822 9.58905 32.2772 9.58905C32.7472 9.58905 33.0383 9.2005 33.238 8.94341L33.3086 9.01996C33.1547 9.26069 32.7845 9.83506 32.1773 9.83506C31.6947 9.83506 31.0877 9.45206 31.0877 8.35795C31.0877 7.30211 31.8238 6.09292 32.7763 6.09292C33.0757 6.09292 33.3295 6.22411 33.425 6.22411C33.5456 6.22411 33.5705 6.15839 33.5914 6.10375H33.6786L33.5247 7.19257L33.4501 7.1762ZM34.2152 9.11287C34.0031 9.53415 33.8408 9.79679 33.5829 9.79679C33.3999 9.79679 33.3833 9.6107 33.3833 9.4576C33.3833 9.34252 33.9865 6.48675 33.9865 6.37192C33.9865 6.2299 33.8117 6.2299 33.7035 6.23519V6.14756C33.9198 6.11482 34.1361 6.06547 34.3523 6L34.3731 6.0272L33.7451 9.19496C33.7368 9.24432 33.7035 9.39188 33.7035 9.45206C33.7035 9.4848 33.7035 9.5616 33.7659 9.5616C33.8699 9.5616 33.9574 9.4085 34.161 9.06352L34.2152 9.11287ZM36.1367 9.14586C35.8746 9.64369 35.7665 9.78596 35.5586 9.78596C35.3714 9.78596 35.3632 9.58351 35.3632 9.50142C35.3632 9.40296 35.4464 8.9434 35.5419 8.49468H35.5295C35.2466 9.11287 34.939 9.79679 34.5645 9.79679C34.4149 9.79679 34.3358 9.7147 34.3358 9.47397C34.3358 9.23324 34.6518 7.85433 34.6518 7.70677C34.6518 7.54813 34.5728 7.54813 34.4024 7.54813V7.47183C34.6124 7.43843 34.8206 7.38908 35.0263 7.32402L35.0387 7.33484L34.6601 9.32087C34.6476 9.39188 34.6601 9.5067 34.7475 9.5067C34.9263 9.5067 35.1884 8.99251 35.3299 8.70796C35.5337 8.30305 35.6252 7.95833 35.7873 7.37287H36.0952L35.7667 9.00888C35.7418 9.11841 35.6876 9.35914 35.6876 9.44123C35.6876 9.46843 35.6916 9.52886 35.7376 9.52886C35.8166 9.52886 35.933 9.33724 36.0787 9.09651L36.1367 9.14586ZM37.6464 8.05703C37.6464 8.51659 37.2513 9.67114 36.6815 9.67114C36.486 9.67114 36.486 9.52886 36.486 9.49059C36.486 8.91621 36.8853 7.59194 37.3428 7.59194C37.6049 7.59194 37.6464 7.88757 37.6464 8.05703ZM36.4903 6.21882C36.7314 6.22436 36.7605 6.25156 36.7605 6.37746C36.7605 6.45401 36.7232 6.59075 36.6941 6.7441L36.1285 9.48505V9.50696C36.1285 9.62732 36.4487 9.79704 36.6692 9.79704C37.3055 9.79704 38 8.85049 38 7.98602C38 7.58665 37.7963 7.32402 37.5052 7.32402C37.1309 7.32402 36.8689 7.83292 36.7316 8.11722L36.7234 8.11193C36.8649 7.49348 37.0561 6.47592 37.1476 6.02745L37.1269 6.00025C36.9106 6.05489 36.6985 6.09317 36.4906 6.12616L36.4903 6.21882ZM20.0013 13.9124C20.2052 13.863 20.2676 13.8466 20.3382 13.5075L20.8497 11.0891C20.8746 10.9795 20.8955 10.8483 20.8955 10.7499C20.8955 10.5585 20.7833 10.5421 20.6043 10.5147V10.4271H21.6317V10.5147C21.428 10.5641 21.3614 10.5749 21.2906 10.9196L20.7791 13.3433C20.7542 13.4528 20.7333 13.5621 20.7333 13.6935C20.7333 13.8686 20.8373 13.8852 21.0163 13.9124V14H20.0013V13.9124Z" fill="black"/>
<path d="M22.5647 13.3811C22.3945 13.7418 22.2755 13.9896 22.0917 13.9896C21.9353 13.9896 21.9285 13.8281 21.9285 13.672C21.9285 13.5429 22.1802 12.2292 22.1802 12.0139C22.1802 11.9171 22.1598 11.8417 22.0952 11.8417C21.9319 11.8417 21.7176 12.3048 21.5952 12.6061C21.4386 12.9775 21.3945 13.2089 21.255 13.941H21C21.1054 13.3328 21.3333 12.0729 21.3333 11.9599C21.3333 11.8791 21.2993 11.8199 21.1157 11.8199V11.7337C21.2993 11.6799 21.4829 11.6259 21.6667 11.5667L21.6769 11.5776L21.4593 12.7027L21.466 12.7136C21.6259 12.3152 21.9388 11.567 22.221 11.567C22.3776 11.567 22.4559 11.6963 22.4559 11.9225C22.4559 12.1539 22.1838 13.4837 22.1838 13.6452C22.1838 13.726 22.2314 13.7366 22.2383 13.7366C22.3064 13.7366 22.3914 13.5644 22.5171 13.3115L22.5647 13.3811ZM23.4728 11.809H23.1871L22.8878 13.6016C22.8843 13.6177 22.8843 13.6284 22.8843 13.6447C22.8843 13.693 22.9012 13.7361 22.9388 13.7361C23.0069 13.7361 23.1259 13.4832 23.2109 13.311L23.255 13.3486C23.0816 13.7631 22.949 14 22.7721 14C22.704 14 22.6088 13.9462 22.6088 13.7847C22.6088 13.7039 22.6734 13.3756 22.6871 13.2894L22.9319 11.809H22.6802C22.6769 11.7768 22.6769 11.7498 22.6871 11.7228C22.7074 11.6742 22.8026 11.6366 22.8605 11.5883C22.9728 11.4966 23.136 11.2545 23.2312 11.066C23.2448 11.0392 23.2585 10.9907 23.289 11.0016C23.3128 10.9907 23.3197 11.0392 23.3128 11.0823L23.2176 11.6368H23.4897L23.4728 11.809ZM23.7754 12.5843C23.9012 12.1051 24.1326 11.6906 24.3162 11.6906C24.4012 11.6906 24.4353 11.7929 24.4353 11.9059C24.4353 11.949 24.4183 12.5949 23.7178 12.8211L23.7754 12.5843ZM24.476 13.3541C24.306 13.5748 24.1631 13.7577 23.9795 13.7577C23.8366 13.7577 23.6598 13.6338 23.6598 13.2679C23.6598 13.1601 23.6767 13.0526 23.6938 12.9396L23.789 12.918C24.34 12.7941 24.6597 12.3581 24.6597 11.9327C24.6597 11.6958 24.5542 11.5665 24.3807 11.5665C23.9012 11.5665 23.3637 12.4708 23.3637 13.2406C23.3637 13.5798 23.4724 13.9995 23.8297 13.9995C24.1698 13.9995 24.4793 13.5042 24.5168 13.4183L24.476 13.3541ZM24.7516 13.9408L25.0271 12.369C25.0611 12.1698 25.0816 11.9867 25.0816 11.9384C25.0816 11.863 25.0645 11.7768 24.9591 11.7768C24.9217 11.7768 24.8843 11.7929 24.8469 11.8038V11.7122C25.0204 11.6745 25.221 11.6044 25.3741 11.5667L25.3843 11.5776L25.2178 12.6489L25.2245 12.6596L25.2517 12.5518C25.364 12.1965 25.6224 11.5665 25.8367 11.5665C25.915 11.5665 26 11.6472 26 11.8303C26 12.1103 25.8776 12.1103 25.8402 12.1103C25.694 12.1103 25.745 11.9166 25.6634 11.9166C25.5579 11.9166 25.3538 12.5142 25.3267 12.5949C25.1974 12.9824 25.1498 13.2247 25.0103 13.9408H24.7516Z" fill="black"/>
<path d="M28 13.4977C27.7827 13.7955 27.6304 14 27.3956 14C27.1955 14 27.1869 13.8667 27.1869 13.7378C27.1869 13.6312 27.5087 12.5469 27.5087 12.3692C27.5087 12.2892 27.4827 12.227 27.4 12.227C27.1915 12.227 26.9174 12.6093 26.7609 12.858C26.5609 13.1645 26.5043 13.3556 26.326 13.9599H26C26.1349 13.4578 26.4261 12.4178 26.4261 12.3246C26.4261 12.2579 26.3826 12.209 26.1477 12.209V12.1378C26.3824 12.0935 26.6174 12.0489 26.8521 12L26.8651 12.009L26.5868 12.9377L26.5954 12.9467C26.7997 12.6179 27.1997 12.0002 27.5607 12.0002C27.7609 12.0002 27.8607 12.107 27.8607 12.2937C27.8607 12.4847 27.5129 13.5824 27.5129 13.7157C27.5129 13.7824 27.5737 13.7912 27.5825 13.7912C27.6696 13.7912 27.7783 13.649 27.9392 13.4402L28 13.4977Z" fill="black"/>
<path d="M28.2961 13.4585C28.2961 13.0524 28.6138 12.0601 29.0266 12.0601C29.1289 12.0601 29.2278 12.1459 29.2278 12.3624C29.2278 12.8045 28.8821 13.7789 28.5079 13.7789C28.4125 13.7789 28.2961 13.6977 28.2961 13.4585ZM29.577 13.4539C29.4182 13.6524 29.3475 13.7654 29.2947 13.7654C29.2665 13.7654 29.2454 13.7384 29.2454 13.7066C29.2454 13.5669 29.57 12.0284 29.5806 11.9744L29.5559 11.9609L29.3407 11.9925L29.3301 12.006L29.2949 12.2047H29.2879C29.2774 12.0782 29.1609 11.9609 29.0092 11.9609C28.5399 11.9609 28 12.8045 28 13.4676C28 13.5984 28.0106 13.9998 28.3635 13.9998C28.5753 13.9998 28.7622 13.8644 29.055 13.3142L29.062 13.3231C29.0055 13.5982 28.9879 13.6975 28.9879 13.8013C28.9879 13.8779 28.9879 13.9952 29.1362 13.9952C29.2879 13.9952 29.4079 13.8329 29.6197 13.499L29.577 13.4539ZM30.6251 12.1637H30.3287L30.0181 13.6659C30.0146 13.6794 30.0146 13.6884 30.0146 13.7021C30.0146 13.7425 30.0323 13.7787 30.0711 13.7787C30.1417 13.7787 30.2652 13.5667 30.3533 13.4224L30.3991 13.4539C30.2192 13.8013 30.0816 13.9998 29.8981 13.9998C29.8275 13.9998 29.7287 13.9547 29.7287 13.8194C29.7287 13.7517 29.7958 13.4766 29.8099 13.4043L30.0639 12.1637H29.8028C29.7994 12.1368 29.7994 12.1141 29.8099 12.0915C29.831 12.0508 29.9298 12.0192 29.9899 11.9788C30.1063 11.9019 30.2757 11.6991 30.3745 11.5411C30.3886 11.5187 30.4027 11.478 30.4345 11.4871C30.4592 11.478 30.4662 11.5187 30.4592 11.5548L30.3605 12.0194H30.6428L30.6251 12.1637ZM31.3026 13.4857C31.1649 13.7519 31.0098 14 30.8122 14C30.6463 14 30.6463 13.8015 30.6463 13.7203C30.6463 13.5083 30.925 12.3896 30.925 12.2632C30.925 12.1683 30.8968 12.1459 30.7027 12.1459V12.0736C30.8367 12.0647 31.1295 11.9925 31.2672 11.9609L31.2778 11.97L30.9673 13.4226C30.9531 13.4857 30.9107 13.6661 30.9107 13.7203C30.9107 13.7519 30.9354 13.788 30.9673 13.788C31.0096 13.788 31.112 13.6977 31.2565 13.4361L31.3026 13.4857ZM31.232 11.4782C31.1438 11.4782 31.0626 11.4016 31.0626 11.2435C31.0626 11.0858 31.1438 11 31.2284 11C31.3449 11 31.4048 11.1489 31.4048 11.2481C31.405 11.3382 31.3484 11.4782 31.232 11.4782ZM32.4566 12.0556C32.6258 12.0556 32.7036 12.2541 32.7036 12.4887C32.7036 12.9714 32.4249 13.9051 32.0226 13.9051C31.8462 13.9051 31.7403 13.7427 31.7403 13.4855C31.7402 12.9534 32.0613 12.0556 32.4566 12.0556ZM32.4813 11.9607C31.9661 11.9607 31.4438 12.6872 31.4438 13.3501C31.4438 13.7245 31.6026 13.9996 31.9766 13.9996C32.5165 13.9996 33 13.1832 33 12.6282C32.9998 12.3307 32.8905 11.9607 32.4813 11.9607Z" fill="black"/>
<path d="M34.6621 13.5176C34.4815 13.7988 34.3549 13.9919 34.1599 13.9919C33.9935 13.9919 33.9864 13.866 33.9864 13.7443C33.9864 13.6437 34.2538 12.6197 34.2538 12.4519C34.2538 12.3764 34.2322 12.3177 34.1635 12.3177C33.9901 12.3177 33.7624 12.6786 33.6323 12.9135C33.466 13.203 33.4191 13.3834 33.2709 13.954H33C33.1121 13.4799 33.3541 12.4979 33.3541 12.4098C33.3541 12.3469 33.318 12.3007 33.1227 12.3007V12.2335C33.3178 12.1916 33.5131 12.1495 33.7082 12.1033L33.719 12.1118L33.4876 12.9888L33.4948 12.9973C33.6646 12.6868 33.997 12.1035 34.2971 12.1035C34.4634 12.1035 34.5464 12.2043 34.5464 12.3806C34.5464 12.561 34.2573 13.5975 34.2573 13.7234C34.2573 13.7864 34.3079 13.7947 34.3152 13.7947C34.3875 13.7947 34.4778 13.6605 34.6116 13.4633L34.6621 13.5176ZM35.0125 13.4965C35.0125 13.1188 35.3378 12.1958 35.7606 12.1958C35.8654 12.1958 35.9665 12.2756 35.9665 12.477C35.9665 12.8882 35.6124 13.7945 35.2294 13.7945C35.1318 13.7945 35.0125 13.719 35.0125 13.4965ZM36.3242 13.4923C36.1616 13.6769 36.0892 13.782 36.0352 13.782C36.0063 13.782 35.9846 13.7569 35.9846 13.7273C35.9846 13.5973 36.3171 12.1663 36.3279 12.1161L36.3026 12.1035L36.0821 12.1329L36.0713 12.1454L36.0352 12.3302H36.028C36.0172 12.2126 35.898 12.1035 35.7427 12.1035C35.262 12.1035 34.7092 12.8882 34.7092 13.505C34.7092 13.6267 34.72 14 35.0814 14C35.2981 14 35.4897 13.8741 35.7895 13.3623L35.7967 13.3706C35.7388 13.6265 35.7209 13.7188 35.7209 13.8154C35.7209 13.8866 35.7209 13.9958 35.8725 13.9958C36.028 13.9958 36.1508 13.8447 36.3676 13.5342L36.3242 13.4923ZM37.1445 13.4755C36.9602 13.7986 36.8194 14 36.5953 14C36.4363 14 36.4219 13.8575 36.4219 13.7399C36.4219 13.6518 36.9457 11.4614 36.9457 11.3733C36.9457 11.2642 36.7939 11.2642 36.6999 11.2684V11.2012C36.8896 11.1758 37.0778 11.1379 37.2637 11.0879L37.2817 11.1089L36.736 13.5384C36.7289 13.5761 36.6999 13.6895 36.6999 13.7356C36.6999 13.7607 36.6999 13.8196 36.7542 13.8196C36.8445 13.8196 36.9203 13.7022 37.0974 13.4378L37.1445 13.4755ZM37.6512 11.1825H37.6883C37.7228 11.1825 37.7507 11.2024 37.7507 11.2623C37.7507 11.3179 37.7336 11.3577 37.6892 11.3577H37.6512V11.1825ZM37.5501 11.1783C37.5944 11.1835 37.5935 11.1825 37.5935 11.2287V11.4793C37.5935 11.5243 37.5944 11.5243 37.5501 11.5297V11.5454H37.6947V11.5297C37.6496 11.5245 37.6512 11.5245 37.6512 11.4793V11.3766H37.6937C37.7505 11.4741 37.7732 11.5454 37.8021 11.5454H37.859V11.5359C37.8417 11.5212 37.8147 11.4857 37.7913 11.4479L37.7397 11.366C37.7805 11.3503 37.8111 11.3104 37.8111 11.2571C37.8111 11.192 37.7613 11.1626 37.7081 11.1626H37.55V11.1783H37.5501ZM38 11.3598C38 11.1615 37.8673 11 37.6955 11C37.6548 10.9999 37.6146 11.0091 37.5771 11.0272C37.5395 11.0452 37.5054 11.0718 37.4768 11.1052C37.4481 11.1387 37.4255 11.1784 37.4102 11.2221C37.3948 11.2658 37.3871 11.3126 37.3875 11.3598C37.3875 11.5579 37.5222 11.7175 37.6955 11.7175C37.8673 11.7175 38 11.5579 38 11.3598ZM37.9503 11.3598C37.9503 11.5265 37.8373 11.6734 37.6955 11.6734C37.551 11.6734 37.4372 11.5265 37.4372 11.3598C37.4372 11.1929 37.5501 11.044 37.6955 11.044C37.8383 11.044 37.9503 11.192 37.9503 11.3598Z" fill="black"/>
<path d="M13.5954 15.9999C17.1279 16.0147 20.0246 13.5485 19.9998 10.5478C20.0243 7.46502 17.1279 4.99903 13.5954 5H6.51702C2.94218 4.99927 0.0454742 7.46502 0 10.5478C0.0454742 13.5485 2.94218 16.0145 6.51674 15.9999H13.5954Z" fill="#009FF8"/>
<path d="M0.449463 10.5481C0.484705 7.67197 3.18445 5.37341 6.51686 5.38309C9.84557 5.37341 12.5456 7.67197 12.584 10.5483C12.5456 13.3426 9.84557 15.6412 6.51686 15.6177C3.18445 15.6412 0.484705 13.3424 0.449463 10.5481Z" fill="white"/>
<path d="M5.16834 7.48682C3.772 8.02323 2.72439 9.17009 2.69653 10.5475C2.72439 11.8732 3.72198 13.0409 5.16834 13.5127V7.48682ZM7.86496 13.5129C9.30792 13.0411 10.3052 11.8732 10.3368 10.5478C10.3052 9.14057 9.30763 7.97266 7.86496 7.48706V13.5129Z" fill="#009FF8"/>
</g>
<defs>
<clipPath id="clip0_829_359">
<rect width="44" height="22" fill="white" transform="translate(0 0.691406)"/>
</clipPath>
</defs>
</svg>
