<svg width="60" height="23" viewBox="0 0 60 23" fill="none" xmlns="http://www.w3.org/2000/svg">
<path d="M12.3669 7.4306C12.9442 7.28124 13.5599 7.20158 14.1988 7.20158C16.9955 7.20158 19.3304 8.74299 19.864 10.7922L23.8281 10.1649C22.9199 6.68379 18.9532 4.06299 14.1988 4.06299C13.1084 4.06299 12.0641 4.2004 11.084 4.45531L12.3669 7.4306Z" fill="#FFCB05"/>
<path d="M7.68948 17.4L10.3707 15.0481C9.17506 14.2256 8.42072 13.0247 8.42072 11.6864C8.42072 10.3502 9.17506 9.14929 10.3707 8.3288L7.68948 5.97485C5.65739 7.37288 4.37451 9.41416 4.37451 11.6864C4.37451 13.9607 5.65739 16.002 7.68948 17.4" fill="#00A4E0"/>
<path d="M19.864 12.5865C19.3278 14.6338 16.9955 16.1732 14.2014 16.1732C13.5599 16.1732 12.9416 16.0936 12.3669 15.9422L11.084 18.9215C12.0641 19.1744 13.1109 19.3118 14.2014 19.3118C18.9506 19.3118 22.9147 16.695 23.8281 13.2179L19.864 12.5865Z" fill="#EF4123"/>
<path d="M27.2945 15.1457C27.1636 14.9824 26.9892 14.7215 26.8814 14.5283C26.2528 13.3972 26.2246 12.2262 26.7531 11.103C27.3356 9.87022 28.4491 8.92824 29.8885 8.4463C31.6974 7.84288 33.6961 7.96038 35.4305 8.75897C36.5313 9.24887 37.3112 10.0056 37.9039 11.0771C37.9783 11.2145 38.0451 11.3599 38.1118 11.4853L27.2945 15.1457ZM30.9071 10.2645C29.6217 10.6927 28.9597 11.6287 29.0982 12.724L34.5377 10.9058C33.6012 10.0534 32.385 9.77065 30.9071 10.2645V10.2645ZM35.215 14.2196C35.2124 14.2196 35.2124 14.2216 35.2124 14.2216L35.0996 14.1619C34.7737 14.5701 34.2682 14.9027 33.6294 15.1178C32.4132 15.528 31.2868 15.4225 30.476 14.8709L30.4016 14.9585C30.4016 14.9585 30.4016 14.9565 30.3991 14.9565L29.0187 16.5596C29.3625 16.7448 29.7294 16.9002 30.1143 17.0256C31.6383 17.5175 33.1983 17.4936 34.7352 16.9759C35.8462 16.6015 36.7186 16.0319 37.3138 15.309L35.215 14.2196ZM41.8911 6.08838V14.9983L43.6769 15.5599L42.6634 17.3961L40.6929 16.7588C40.2516 16.6094 39.9489 16.3824 39.7231 16.1255C39.505 15.8646 39.3433 15.5041 39.3433 15.0222V6.08838H41.8911ZM46.5146 12.73C46.5146 11.9712 46.9483 11.2902 47.6307 10.8281L45.7988 9.2429C44.557 10.0953 43.7744 11.3399 43.7744 12.726C43.7718 14.1141 44.5544 15.3608 45.7937 16.2131L47.6231 14.6279C46.9431 14.1639 46.5146 13.4868 46.5146 12.73V12.73ZM49.768 15.2572C49.4088 15.2572 49.0599 15.2094 48.7366 15.1258L47.8617 17.1431C48.4595 17.2985 49.0984 17.3841 49.7655 17.3841C52.6648 17.3861 55.0843 15.7889 55.6462 13.668L52.9573 13.2418C52.6519 14.3949 51.3408 15.2592 49.768 15.2572V15.2572ZM49.7757 8.07589C49.1112 8.07589 48.4723 8.15953 47.8745 8.31287L48.7417 10.3322C49.0676 10.2486 49.414 10.2028 49.7732 10.2028C51.3485 10.2048 52.6622 11.0731 52.9598 12.2281L55.6488 11.8059C55.0971 9.68103 52.6776 8.07788 49.7757 8.07589V8.07589Z" fill="white"/>
</svg>
