<svg width="50" height="23" viewBox="0 0 50 23" fill="none" xmlns="http://www.w3.org/2000/svg">
<g clip-path="url(#clip0_864_395)">
<path d="M13.7233 0.140259H8.54232C6.25302 0.249691 4.38175 1.1819 3.84144 3.10426C3.55971 4.10681 3.40466 5.20789 3.18436 6.24715C2.06439 11.5315 1.0713 16.9614 0 22.1403H40.3356C43.454 22.1403 45.5952 21.474 46.1737 18.9717C46.4424 17.8093 46.6999 16.4928 46.9571 15.2158C47.9597 10.2364 48.963 5.25739 49.99 0.140259H13.7233Z" fill="#822124"/>
<path d="M13.3239 8.51022C13.5406 8.35931 13.8196 7.67206 13.5008 7.38593C13.3998 7.29535 13.231 7.26905 12.9953 7.30934C12.7768 7.34664 12.6511 7.42174 12.5657 7.53931C12.4285 7.72831 12.3026 8.29849 12.5152 8.51031C12.7222 8.71648 13.186 8.60615 13.3239 8.51022V8.51022ZM10.2406 7.38593C10.0854 8.40435 9.91049 9.40294 9.73513 10.401C8.60928 10.413 7.45977 10.4572 6.37385 10.3754C6.57894 9.39897 6.72604 8.36378 6.92986 7.38593H5.71676C5.28253 9.87678 4.88745 12.4074 4.40259 14.8471H5.641C5.8352 13.5957 6.01694 12.3314 6.27277 11.1421C7.32866 11.1158 8.59416 11.0699 9.60884 11.1676C9.39962 12.4041 9.14684 13.5963 8.95175 14.8471H10.1902C10.5882 12.3194 11.0073 9.81338 11.5044 7.38593H10.2406V7.38593ZM27.7548 9.53231C26.7912 9.13883 26.0336 9.80376 25.6824 10.4266C25.7621 10.1495 25.7949 9.82499 25.8595 9.53231H24.8991C24.6642 11.3732 24.3182 13.1015 23.9893 14.8471H25.0761C25.2284 13.811 25.2941 12.4143 25.632 11.4231C25.902 10.6311 26.6088 9.95635 27.6286 10.3244C27.6427 10.0323 27.7254 9.80922 27.7548 9.53231V9.53231ZM28.3612 13.5951C28.261 13.3334 28.2352 12.9014 28.2602 12.5729C28.3164 11.8347 28.5825 10.9358 28.9932 10.5288C29.5599 9.96717 30.6787 10.0601 31.5711 10.3755C31.5987 10.0714 31.6591 9.80019 31.6975 9.50681C30.234 9.26513 28.8452 9.41554 28.1088 10.1967C27.3879 10.9615 26.9154 12.7192 27.2494 13.8251C27.6403 15.1192 29.3936 15.1896 30.8129 14.6939C30.8757 14.4338 30.909 14.1438 30.9645 13.8763C30.1888 14.2835 28.706 14.4953 28.3612 13.5951V13.5951ZM40.5681 9.55781C39.6076 9.07226 38.808 9.887 38.4958 10.3754C38.5847 10.1248 38.5898 9.78918 38.6726 9.53221H37.7123C37.4534 11.3571 37.1413 13.1283 36.7773 14.847H37.8894C37.8963 14.1426 38.0332 13.6215 38.142 12.9308C38.3743 11.4557 38.7156 9.83809 40.4167 10.3243C40.473 10.0749 40.4964 9.79195 40.5681 9.55781ZM12.2119 9.53231C12.1824 9.53658 12.1844 9.57269 12.1865 9.60891C11.9471 11.4195 11.623 13.1446 11.2768 14.847H12.3635C12.6246 13.0242 12.9237 11.2401 13.2986 9.53221L12.2119 9.53231V9.53231ZM21.765 9.43012C20.9798 9.49134 20.316 9.71973 19.8443 10.2222C19.2657 10.8385 18.7973 12.201 18.9345 13.4418C19.1304 15.212 21.3104 15.1484 23.054 14.7194C23.0837 14.4087 23.1581 14.1431 23.2056 13.8506C22.4874 14.1223 21.2402 14.5016 20.5013 14.0296C19.9435 13.6729 19.9403 12.7701 20.1222 11.9854C21.2941 11.9477 22.5121 11.9548 23.6857 11.9854C23.76 11.4292 23.9731 10.8228 23.7867 10.2734C23.541 9.54819 22.6608 9.36028 21.765 9.43012ZM22.8012 11.372H20.2485C20.3294 10.7787 20.8573 10.1266 21.6892 10.0945C22.4721 10.0642 23.0326 10.3851 22.8012 11.372V11.372ZM17.6456 9.53231C16.7258 9.18298 15.6049 9.59998 15.1188 9.99663C15.1206 10.0141 15.1072 10.0165 15.0929 10.0178C15.1011 10.0107 15.1102 10.0037 15.1188 9.99663C15.1187 9.99517 15.1186 9.99371 15.1183 9.99227C15.1265 9.82172 15.1858 9.70286 15.1941 9.53231H14.259C13.8693 12.1534 13.4072 14.7012 12.9196 17.2233H14.0063C14.1636 16.2411 14.2674 15.2048 14.4865 14.2849C14.7347 15.2525 16.3553 15.0676 17.0391 14.6938C18.45 13.9223 19.5382 10.251 17.6456 9.53231V9.53231ZM16.7864 13.8506C16.2049 14.4731 14.7755 14.4638 14.6634 13.4161C14.6146 12.9603 14.7825 12.4824 14.8657 12.0109C14.9496 11.5335 15.0102 11.0756 15.093 10.6566C15.6657 9.94961 17.3485 9.86418 17.5193 11.0399C17.6674 12.0606 17.2678 13.335 16.7864 13.8506V13.8506ZM44.6117 7.23264C44.5186 8.0583 44.3941 8.8523 44.2328 9.60891C41.567 8.75577 39.9323 10.7387 39.9617 13.1862C39.9675 13.6596 40.0481 14.129 40.3407 14.4638C40.8455 15.0406 42.2902 15.1789 43.0198 14.6937C43.1609 14.5998 43.3052 14.429 43.3987 14.3105C43.4691 14.2213 43.5807 13.9877 43.601 14.055C43.5625 14.3142 43.5052 14.5545 43.5 14.847H44.4856C44.6757 12.092 45.2629 9.73897 45.6987 7.23254H44.6118V7.23264H44.6117ZM42.1856 14.2593C41.4541 14.2752 41.0903 13.8174 41.0735 13.0585C41.0444 11.7292 41.6211 10.2524 42.7922 10.12C43.3374 10.0583 43.7322 10.1865 44.1317 10.3244C43.7649 11.8176 43.8972 14.2222 42.1856 14.2593V14.2593ZM32.8093 9.53231C32.7558 9.83591 32.6737 10.1106 32.6072 10.401C33.2484 10.2384 35.2453 9.73997 35.4378 10.6054C35.5016 10.8929 35.3914 11.1984 35.3114 11.4231C33.5057 11.2502 32.034 11.5535 31.6467 12.854C31.3875 13.7251 31.6758 14.5823 32.2281 14.8216C33.2917 15.2823 34.5855 14.7545 35.0334 14.0296C34.9868 14.2805 34.9428 14.5342 34.9577 14.8471H35.8927C35.9027 13.9417 36.033 13.2088 36.1707 12.394C36.2881 11.7002 36.509 11.0134 36.474 10.401C36.3936 8.99864 34.0956 9.49471 32.8093 9.53231V9.53231ZM34.5784 13.825C34.0184 14.3793 32.4463 14.5367 32.6072 13.2117C32.7406 12.1113 33.9258 11.8774 35.2101 12.0363C35.1147 12.6383 35.0052 13.4026 34.5784 13.825V13.825Z" fill="white"/>
</g>
<defs>
<clipPath id="clip0_864_395">
<rect width="50" height="22" fill="white" transform="translate(0 0.691406)"/>
</clipPath>
</defs>
</svg>
