<svg width="38" height="23" viewBox="0 0 38 23" fill="none" xmlns="http://www.w3.org/2000/svg">
<path fill-rule="evenodd" clip-rule="evenodd" d="M0 0.595703H38V22.7871H0V0.595703Z" fill="white"/>
<path fill-rule="evenodd" clip-rule="evenodd" d="M19.0001 16.5029C20.1454 15.8927 21.0597 15.1495 21.6843 14.3209C22.3089 13.4924 22.6301 12.5967 22.6273 11.6914C22.6302 10.786 22.309 9.89037 21.6844 9.06179C21.0597 8.23321 20.1454 7.49001 19.0001 6.87987C17.0417 5.8359 14.4438 5.19971 11.593 5.19971C5.49918 5.19971 0.558838 8.10609 0.558838 11.6914C0.558838 15.2765 5.49918 18.183 11.593 18.183C14.4438 18.183 17.0419 17.5468 19.0001 16.5029Z" fill="#3A9BD9"/>
<path fill-rule="evenodd" clip-rule="evenodd" d="M26.407 5.19971C23.5561 5.19971 20.9578 5.8359 18.9998 6.87987C18.6005 7.09294 18.2282 7.32265 17.8858 7.56718H20.1131C20.4189 7.78543 20.7001 8.01506 20.9549 8.2546H17.0446C16.8092 8.47611 16.5968 8.70566 16.4084 8.94202H21.5901C21.7684 9.16573 21.9247 9.39521 22.0583 9.62933H15.9412C15.8129 9.85483 15.706 10.0843 15.6208 10.3166H22.3788C22.5443 10.7685 22.6275 11.2293 22.6272 11.6914C22.6272 12.4121 22.4269 13.1055 22.0585 13.7533H15.9412C16.0743 13.9875 16.2303 14.217 16.4084 14.4407H21.5901C21.4021 14.6771 21.1899 14.9066 20.9547 15.1281H17.0446C17.2992 15.3677 17.5801 15.5973 17.8856 15.8156H20.1131C19.7711 16.0602 19.399 16.29 18.9998 16.503C20.9578 17.547 23.5561 18.1831 26.407 18.1831C32.5006 18.1831 37.4411 15.2767 37.4411 11.6915C37.4411 8.10609 32.5006 5.19971 26.407 5.19971Z" fill="#CC2131"/>
<path fill-rule="evenodd" clip-rule="evenodd" d="M35.9724 15.3103C35.9724 15.1945 36.1319 15.1006 36.329 15.1006C36.5258 15.1006 36.6853 15.1945 36.6853 15.3103C36.6853 15.4259 36.5258 15.5199 36.329 15.5199C36.2342 15.5197 36.1433 15.4975 36.0764 15.4582C36.0096 15.4189 35.9722 15.3657 35.9724 15.3103V15.3103ZM36.3288 15.4695C36.4783 15.4695 36.5995 15.3984 36.5995 15.3102C36.5995 15.222 36.4783 15.1508 36.3288 15.1508C36.179 15.1508 36.0578 15.222 36.0578 15.3102C36.0578 15.3984 36.1792 15.4695 36.3288 15.4695ZM36.2807 15.4022H36.2076V15.2178H36.3401C36.3675 15.2178 36.3955 15.2182 36.4197 15.2272C36.4323 15.2324 36.4425 15.2393 36.4495 15.2474C36.4565 15.2554 36.46 15.2643 36.4597 15.2733C36.4597 15.294 36.439 15.3136 36.4055 15.3209L36.4633 15.4021H36.3821L36.3344 15.3292H36.2809V15.4022V15.2979H36.3214C36.3359 15.2979 36.3525 15.2984 36.3657 15.2941C36.3716 15.2918 36.3763 15.2886 36.3796 15.2849C36.3828 15.2812 36.3844 15.2771 36.3842 15.2729C36.384 15.2692 36.3823 15.2656 36.3792 15.2624C36.3761 15.2591 36.3718 15.2564 36.3665 15.2543C36.3539 15.2498 36.3334 15.2509 36.3196 15.2509H36.2811V15.4022H36.2807Z" fill="#CC2131"/>
<path fill-rule="evenodd" clip-rule="evenodd" d="M33.6388 13.0986C33.6388 12.9827 33.7983 12.8888 33.995 12.8888C34.1918 12.8888 34.3512 12.9827 34.3512 13.0986C34.3512 13.2144 34.1918 13.3081 33.995 13.3081C33.7983 13.3081 33.6388 13.2143 33.6388 13.0986ZM33.9948 13.2577C34.1442 13.2577 34.2655 13.1864 34.2655 13.0984C34.2655 13.0103 34.1442 12.939 33.9948 12.939C33.845 12.939 33.7241 13.0103 33.7241 13.0984C33.7241 13.1864 33.8452 13.2577 33.9948 13.2577ZM33.9467 13.1904H33.8736V13.0062H34.0061C34.0335 13.0062 34.0618 13.0065 34.0857 13.0157C34.0983 13.0208 34.1085 13.0277 34.1155 13.0357C34.1225 13.0437 34.126 13.0525 34.1257 13.0615C34.1257 13.0824 34.1052 13.1018 34.0715 13.1092L34.1293 13.1903H34.0484L34.0003 13.1174H33.9469V13.1904V13.0861H33.9873C34.0023 13.0861 34.0189 13.0868 34.0317 13.0826C34.0375 13.0802 34.0422 13.077 34.0454 13.0733C34.0487 13.0696 34.0503 13.0655 34.0502 13.0614C34.0501 13.0576 34.0484 13.054 34.0453 13.0507C34.0422 13.0474 34.0378 13.0446 34.0325 13.0425C34.0199 13.0382 33.9993 13.0392 33.9859 13.0392H33.9471V13.1904H33.9467ZM10.2146 13.3081H8.84127L9.65744 10.7781L7.77829 13.3081H6.52606L6.29718 10.7926L5.47845 13.3081H4.23193L5.29708 10.017H7.44L7.55336 12.0545L9.06424 10.017H11.2972L10.2146 13.3081V13.3081ZM25.5621 13.2753C25.1864 13.336 24.8926 13.3621 24.5752 13.3621C23.8726 13.3621 23.489 13.1547 23.489 12.7744C23.489 12.6991 23.5032 12.6189 23.5294 12.5342L23.613 12.2725L23.6773 12.0607L24.3138 10.0168H25.6796L25.4817 10.6315H26.1825L25.9943 11.2822H25.2905L24.9285 12.3989C24.9151 12.4354 24.9073 12.4725 24.9051 12.5098C24.9051 12.6481 25.0472 12.7082 25.3737 12.7082C25.53 12.7082 25.6512 12.6999 25.7441 12.6832L25.5621 13.2753ZM29.5732 10.6535C29.458 10.6268 29.431 10.6268 29.4176 10.6246C29.3449 10.6152 29.306 10.6096 29.2993 10.6089C29.2537 10.6043 29.2074 10.6021 29.1611 10.6023C28.7103 10.6023 28.3852 10.7204 27.9649 11.0369L28.0861 10.6313H26.8424L26.0053 13.308H27.3796C27.8712 11.671 28.0818 11.3843 28.741 11.3843C28.7907 11.3843 28.8481 11.3866 28.9147 11.3911L29.0752 11.4103L29.5732 10.6535V10.6535ZM20.1181 11.4771C20.1181 11.8152 20.442 12.0481 21.1762 12.2231C21.7388 12.3576 21.8257 12.397 21.8257 12.5186C21.8257 12.6851 21.5777 12.7603 21.0283 12.7603C20.6135 12.7603 20.2281 12.7275 19.7832 12.6544L19.5925 13.2718L19.654 13.2779L19.9085 13.3053C19.9906 13.3136 20.1114 13.3216 20.2717 13.3287C20.6021 13.3438 20.8578 13.3509 21.038 13.3509C22.5039 13.3509 23.1811 13.0683 23.1811 12.4578C23.1811 12.0904 22.898 11.875 22.2019 11.7128C21.6193 11.5773 21.5519 11.5472 21.5519 11.4223C21.5519 11.2781 21.783 11.2039 22.2318 11.2039C22.5049 11.2039 22.8771 11.219 23.2302 11.2441L23.4281 10.6245C23.0685 10.5957 22.5228 10.5721 22.2056 10.5721C20.6514 10.5722 20.1134 10.9835 20.1181 11.4771V11.4771ZM14.679 13.3081H13.5377L13.5644 13.0306C13.2168 13.2503 12.7535 13.3544 12.1239 13.3544C11.3797 13.3544 10.8689 13.0562 10.8689 12.6233C10.8689 11.9712 11.7562 11.5912 13.2813 11.5912C13.4376 11.5912 13.6361 11.5985 13.8408 11.6118C13.8833 11.5239 13.895 11.4859 13.895 11.438C13.895 11.2608 13.6554 11.1945 13.0141 11.1945C12.622 11.1945 12.1789 11.2235 11.8729 11.2691L11.6827 11.2975L11.5594 11.3148L11.7499 10.713C12.4346 10.6099 12.8864 10.5708 13.394 10.5708C14.5743 10.5708 15.1981 10.8428 15.1981 11.356C15.1981 11.4881 15.1774 11.5883 15.0865 11.8863L14.7994 12.8358L14.7511 13.0062L14.7161 13.1423L14.6926 13.2354L14.679 13.3081V13.3081ZM13.6771 12.1156C13.5753 12.1082 13.4728 12.1045 13.3702 12.1046C12.5919 12.1046 12.1976 12.2414 12.1976 12.5118C12.1976 12.6783 12.39 12.7847 12.6902 12.7847C13.2501 12.7848 13.6535 12.5114 13.6771 12.1156ZM19.1842 13.2503C18.7256 13.323 18.2523 13.3595 17.7771 13.3589C16.2417 13.3582 15.4415 12.9469 15.4415 12.1597C15.4415 11.2409 16.4596 10.5644 17.8415 10.5644C18.9721 10.5644 19.6941 10.9433 19.6941 11.5373C19.6941 11.7345 19.6448 11.9268 19.5255 12.1982H16.7949C16.7866 12.2259 16.7821 12.254 16.7817 12.2822C16.7817 12.5925 17.1888 12.7508 17.9864 12.7508C18.4769 12.7508 18.9203 12.6984 19.4125 12.5814L19.1842 13.2503ZM18.4529 11.6576C18.4603 11.6019 18.4643 11.5563 18.4643 11.5211C18.4643 11.3037 18.2236 11.1762 17.8147 11.1762C17.3778 11.1762 17.0654 11.3473 16.9386 11.656L18.4529 11.6576ZM33.842 12.0945C33.6364 12.9849 32.5795 13.3798 31.1745 13.3798C29.6209 13.3798 28.9934 12.8254 28.9934 12.146C28.9934 11.1974 30.0561 10.5546 31.6975 10.5546C33.1223 10.5546 33.8787 11.0832 33.8787 11.7626C33.8787 11.928 33.8783 11.9389 33.842 12.0945ZM32.4277 11.752C32.4277 11.472 32.2345 11.2077 31.6715 11.2077C30.9707 11.2077 30.5364 11.6951 30.5364 12.1253C30.5364 12.4882 30.8341 12.732 31.3249 12.7268C31.6226 12.7268 32.2574 12.4883 32.383 12.0716C32.4124 11.9745 32.4277 11.8679 32.4277 11.752V11.752Z" fill="white"/>
</svg>
